<?xml version="1.0" standalone="no"?>
<!DOCTYPE svg PUBLIC "-//W3C//DTD SVG 20010904//EN"
 "http://www.w3.org/TR/2001/REC-SVG-20010904/DTD/svg10.dtd">
<svg version="1.0" xmlns="http://www.w3.org/2000/svg"
 width="540.000000pt" height="157.000000pt" viewBox="0 0 540.000000 157.000000"
 preserveAspectRatio="xMidYMid meet">

<g transform="translate(0.000000,157.000000) scale(0.100000,-0.100000)"
fill="#000000" stroke="none">
<path d="M482 1244 c-33 -23 -51 -66 -137 -314 -42 -124 -98 -287 -124 -362
l-48 -138 78 0 77 0 27 80 27 80 156 -2 157 -3 26 -75 26 -75 78 -3 c71 -3 77
-1 71 15 -4 10 -57 162 -118 338 -147 425 -145 420 -179 450 -35 29 -83 33
-117 9z m111 -347 c26 -78 47 -148 47 -154 0 -10 -26 -13 -98 -13 -54 0 -101
3 -104 6 -7 7 91 304 100 304 4 0 28 -64 55 -143z"/>
<path d="M1198 1047 c-51 -15 -64 -23 -121 -76 -66 -62 -77 -111 -77 -341 l0
-200 75 0 75 0 0 190 c0 208 5 231 56 265 38 25 97 24 131 -1 53 -38 63 -75
63 -222 0 -146 7 -171 60 -216 71 -59 164 -54 231 13 49 48 59 91 59 243 0
121 1 128 25 157 54 63 146 60 192 -8 21 -31 23 -45 23 -170 0 -122 2 -142 23
-181 23 -47 76 -90 109 -90 19 0 19 9 16 228 -3 211 -5 230 -25 268 -25 47
-92 110 -137 129 -133 55 -285 0 -350 -129 -28 -54 -30 -66 -34 -202 -4 -129
-6 -144 -22 -144 -16 0 -18 14 -21 143 -4 131 -6 146 -32 199 -59 120 -192
180 -319 145z"/>
<path d="M2477 1050 c-84 -21 -145 -73 -183 -155 -23 -48 -24 -61 -24 -267 0
-152 3 -218 11 -218 29 0 83 37 107 73 26 38 27 49 32 192 6 171 14 195 78
222 47 20 100 5 136 -38 25 -29 26 -35 26 -162 0 -155 9 -196 54 -241 64 -63
167 -68 236 -10 50 43 54 59 60 226 5 156 5 157 34 187 45 47 86 56 139 33 70
-31 77 -56 77 -276 l0 -186 75 0 75 0 0 193 c0 222 -9 269 -66 335 -110 129
-308 129 -418 0 -52 -60 -66 -118 -66 -271 0 -127 0 -128 -22 -125 -22 3 -23
7 -28 153 -3 84 -11 163 -18 179 -49 114 -194 186 -315 156z"/>
<path d="M3754 1031 c-23 -10 -45 -24 -48 -30 -12 -19 -29 -12 -23 9 5 19 0
20 -71 20 l-77 0 0 -410 0 -410 75 0 75 0 -3 121 c-4 146 0 160 31 132 37 -34
63 -43 124 -43 106 0 196 64 223 161 6 19 10 90 10 159 0 134 -14 186 -63 238
-59 63 -179 88 -253 53z m132 -165 c34 -34 34 -34 34 -131 0 -82 -3 -101 -21
-126 -27 -38 -84 -55 -133 -39 -49 16 -73 51 -81 115 -17 133 29 215 120 215
40 0 52 -5 81 -34z"/>
<path d="M4360 1030 c-71 -24 -124 -82 -146 -158 -12 -41 -15 -84 -12 -167 4
-102 7 -116 35 -166 46 -82 102 -113 211 -118 104 -4 151 9 204 57 38 34 77
100 78 130 0 8 -21 12 -75 12 -64 0 -76 -3 -85 -20 -23 -42 -98 -62 -154 -40
-30 11 -66 65 -66 98 l0 22 196 0 197 0 -5 90 c-9 149 -64 233 -174 266 -64
19 -138 17 -204 -6z m183 -140 c25 -20 50 -73 40 -84 -4 -3 -58 -6 -121 -6
l-114 0 6 28 c4 15 20 39 37 55 37 35 112 38 152 7z"/>
<path d="M5085 1028 c-11 -6 -30 -20 -42 -31 l-23 -20 0 26 c0 27 0 27 -75 27
l-75 0 0 -300 0 -300 75 0 75 0 0 193 c0 173 2 195 20 224 21 34 67 53 133 53
l37 0 0 70 0 70 -52 0 c-29 0 -62 -6 -73 -12z"/>
</g>
</svg>
